<?xml version="1.0" encoding="utf-8"?>
<svg width="165px" height="165px" viewBox="0 0 165 165" version="1.1" xmlns:xlink="http://www.w3.org/1999/xlink" xmlns="http://www.w3.org/2000/svg">
  <defs>
    <linearGradient gradientUnits="userSpaceOnUse" x1="0" y1="0" x2="130.625" y2="130.625" id="gradient_1">
      <stop offset="0%" stop-color="#6B2A6E" />
      <stop offset="100%" stop-color="#4233A0" />
    </linearGradient>
    <path d="M0 0L165 0L165 165L0 165L0 0Z" id="path_1" />
    <clipPath id="mask_1">
      <use xlink:href="#path_1" />
    </clipPath>
  </defs>
  <g id="Instagram-icon-2">
    <path d="M0 0L165 0L165 165L0 165L0 0Z" id="Background" fill="#FFFFFF" fill-opacity="0" fill-rule="evenodd" stroke="none" />
    <g clip-path="url(#mask_1)">
      <path d="M56.7188 17.1884C34.947 17.1884 17.1876 34.9478 17.1876 56.7196L17.1876 108.282C17.1876 130.051 34.9464 147.813 56.7188 147.813L108.281 147.813C130.051 147.813 147.813 130.052 147.813 108.282L147.813 56.7196C147.813 34.9472 130.05 17.1884 108.281 17.1884L56.7188 17.1884L56.7188 17.1884ZM56.7188 27.5009L108.281 27.5009C124.476 27.5009 137.5 40.5214 137.5 56.7196L137.5 108.282C137.5 124.476 124.476 137.501 108.281 137.501L56.7188 137.501C40.5206 137.501 27.5001 124.477 27.5001 108.282L27.5001 56.7196C27.5001 40.5208 40.52 27.5009 56.7188 27.5009L56.7188 27.5009ZM116.875 41.25C113.077 41.25 110 44.3266 110 48.125C110 51.9235 113.077 55 116.875 55C120.674 55 123.75 51.9235 123.75 48.125C123.75 44.3266 120.674 41.25 116.875 41.25L116.875 41.25ZM82.5001 48.1259C63.5772 48.1259 48.1251 63.578 48.1251 82.5009C48.1251 101.424 63.5772 116.876 82.5001 116.876C101.423 116.876 116.875 101.424 116.875 82.5009C116.875 63.578 101.423 48.1259 82.5001 48.1259L82.5001 48.1259ZM82.5001 58.4384C95.8485 58.4384 106.563 69.1524 106.563 82.5009C106.563 95.8493 95.8485 106.563 82.5001 106.563C69.1516 106.563 58.4376 95.8493 58.4376 82.5009C58.4376 69.1524 69.1516 58.4384 82.5001 58.4384L82.5001 58.4384Z" id="Shape" fill="url(#gradient_1)" fill-rule="evenodd" stroke="none" />
    </g>
  </g>
</svg>