<?xml version="1.0" encoding="utf-8"?>
<svg width="133px" height="133px" viewBox="0 0 133 133" version="1.1" xmlns:xlink="http://www.w3.org/1999/xlink" xmlns="http://www.w3.org/2000/svg">
  <defs>
    <radialGradient gradientUnits="objectBoundingBox" cx="50%" cy="50%" fx="50%" fy="50%" r="52.272728%" gradientTransform="translate(0.5,0.5),scale(1,0.95652175),rotate(90.00008),translate(-0.5,-0.5)" id="gradient_1">
      <stop offset="25.321766%" stop-color="#7240B5" />
      <stop offset="55.54924%" stop-color="#5272B7" />
      <stop offset="96.55517%" stop-color="#742FAE" />
    </radialGradient>
    <path d="M0 0L133 0L133 133L0 133L0 0Z" id="path_1" />
    <clipPath id="mask_1">
      <use xlink:href="#path_1" />
    </clipPath>
  </defs>
  <g id="Google-Code-icon">
    <path d="M0 0L133 0L133 133L0 133L0 0Z" id="Background" fill="#FFFFFF" fill-opacity="0" fill-rule="evenodd" stroke="none" />
    <g clip-path="url(#mask_1)">
      <path d="M22.1667 17.7333C19.7183 17.7336 17.7336 19.7183 17.7333 22.1667L17.7333 93.1C17.7345 95.5501 19.72 97.534 22.1684 97.5333L53.1913 97.5333L53.1913 106.4L34.7133 106.4C33.5873 106.4 32.5029 106.832 31.6828 107.604L22.868 115.873C21.4006 117.243 22.3837 119.7 24.392 119.7L108.608 119.7C110.616 119.7 111.599 117.238 110.132 115.864L101.317 107.595C100.493 106.828 99.4127 106.4 98.2867 106.4L79.7913 106.4L79.7913 97.5333L110.833 97.5333C113.282 97.5331 115.266 95.5484 115.267 93.1L115.267 22.1667C115.265 19.7166 113.28 17.7326 110.832 17.7333L22.1667 17.7333L22.1667 17.7333ZM26.6 26.6L106.4 26.6L106.4 88.6667L26.6 88.6667L26.6 26.6L26.6 26.6ZM53.1134 39.8568C51.9617 39.8911 50.8685 40.3725 50.0655 41.1989L36.7655 54.4989C35.0349 56.2302 35.0349 59.0366 36.7655 60.7679L50.0655 74.0679C51.1775 75.226 52.8287 75.6926 54.3823 75.2875C55.9359 74.8825 57.1491 73.6693 57.5541 72.1157C57.9592 70.5621 57.4927 68.9109 56.3345 67.7989L46.169 57.6334L56.3345 47.4679C57.6457 46.1934 58.04 44.2446 57.3273 42.5606C56.6146 40.8766 54.9412 39.8029 53.1134 39.8568L53.1134 39.8568ZM79.7567 39.8567C77.9527 39.8572 76.3288 40.9507 75.65 42.6221C74.9711 44.2935 75.3727 46.2096 76.6655 47.4678L86.831 57.6333L76.6655 67.7988C75.5073 68.9108 75.0408 70.562 75.4458 72.1156C75.8509 73.6692 77.0641 74.8825 78.6177 75.2875C80.1713 75.6925 81.8225 75.226 82.9345 74.0679L96.2345 60.7678C97.9651 59.0365 97.9651 56.2302 96.2345 54.4988L82.9345 41.1988C82.0998 40.3408 80.9537 39.8568 79.7567 39.8567L79.7567 39.8567Z" id="Shape" fill="url(#gradient_1)" fill-rule="evenodd" stroke="none" />
    </g>
  </g>
</svg>