<?xml version="1.0" encoding="utf-8"?>
<svg width="165px" height="165px" viewBox="0 0 165 165" version="1.1" xmlns:xlink="http://www.w3.org/1999/xlink" xmlns="http://www.w3.org/2000/svg">
  <defs>
    <linearGradient gradientUnits="userSpaceOnUse" x1="0" y1="0" x2="123.75" y2="124.313965" id="gradient_1">
      <stop offset="0%" stop-color="#248F8F" />
      <stop offset="26.54321%" stop-color="#26874B" />
      <stop offset="64.197525%" stop-color="#0F7B7B" />
      <stop offset="100%" stop-color="#18645B" />
    </linearGradient>
    <path d="M0 0L165 0L165 165L0 165L0 0Z" id="path_1" />
    <clipPath id="mask_1">
      <use xlink:href="#path_1" />
    </clipPath>
  </defs>
  <g id="Whatsapp-icon-2">
    <path d="M0 0L165 0L165 165L0 165L0 0Z" id="Background" fill="#FFFFFF" fill-opacity="0" fill-rule="evenodd" stroke="none" />
    <g clip-path="url(#mask_1)">
      <path d="M126.348 38.692C114.706 27.0502 99.2377 20.625 82.7618 20.625C48.8031 20.625 21.1487 48.2593 21.1487 82.218C21.1285 93.0743 23.9685 103.669 29.3665 113.015L20.625 144.939L53.2947 136.359C62.2778 141.273 72.4292 143.851 82.7417 143.871L82.7618 143.871C116.721 143.871 144.355 116.237 144.375 82.2583C144.375 65.8026 137.97 50.3339 126.348 38.692L126.348 38.692ZM82.7618 133.458L82.7417 133.458C73.5571 133.458 64.5337 130.981 56.6785 126.328L54.8053 125.22L35.4089 130.296L40.5853 111.403L39.3768 109.47C34.2407 101.312 31.5417 91.886 31.5417 82.218C31.5417 53.9996 54.5233 31.0382 82.782 31.0382C96.4581 31.0382 109.308 36.3757 118.976 46.0437C128.644 55.7318 133.962 68.5822 133.962 82.2583C133.962 110.497 110.98 133.458 82.7618 133.458L82.7618 133.458ZM110.839 95.1086C109.308 94.3433 101.735 90.6171 100.325 90.1135C98.9154 89.5898 97.8882 89.3481 96.861 90.8789C95.8337 92.4298 92.8931 95.8942 91.9867 96.9214C91.1005 97.9285 90.1941 98.0695 88.6633 97.3041C87.1124 96.5387 82.1576 94.9072 76.2762 89.6503C71.7041 85.5817 68.6023 80.5261 67.7161 78.9954C66.8097 77.4445 67.6154 76.6187 68.3807 75.8533C69.0857 75.1685 69.9316 74.0607 70.697 73.1543C71.4624 72.2681 71.7242 71.6235 72.2479 70.5963C72.7515 69.5691 72.4896 68.6627 72.1069 67.8973C71.7242 67.132 68.6426 59.5386 67.3535 56.4569C66.1047 53.4558 64.8358 53.8788 63.8892 53.8184C63.0029 53.7781 61.9757 53.7781 60.9485 53.7781C59.9213 53.7781 58.2495 54.1608 56.8396 55.7117C55.4297 57.2424 51.4618 60.9686 51.4618 68.5419C51.4618 76.1151 56.9806 83.4467 57.746 84.4739C58.5114 85.481 68.6023 101.03 84.0509 107.697C87.7167 109.288 90.5768 110.235 92.8125 110.94C96.4984 112.108 99.8621 111.947 102.521 111.564C105.482 111.121 111.625 107.838 112.914 104.233C114.183 100.648 114.183 97.5659 113.8 96.9214C113.417 96.2769 112.39 95.8942 110.839 95.1086L110.839 95.1086Z" id="Shape" fill="url(#gradient_1)" fill-rule="evenodd" stroke="none" />
    </g>
  </g>
</svg>